<svg xmlns="http://www.w3.org/2000/svg" viewBox="0 0 24 24" fill="currentColor"><path d="M12 2a10 10 0 1 0 .001 20.001A10 10 0 0 0 12 2zm6.57 6.2a8.23 8.23 0 0 1 1.74 5.06 17.28 17.28 0 0 0-5.3-.22 27.1 27.1 0 0 0-.73-1.72 26.7 26.7 0 0 0 4.29-3.12zM12 3.77c1.9 0 3.66.62 5.08 1.67a25.06 25.06 0 0 1-4.05 2.95A39.2 39.2 0 0 0 10.1 4.3 8.2 8.2 0 0 1 12 3.77zM8.62 4.54c1.27 1.6 2.45 3.3 3.5 5.08a23.7 23.7 0 0 1-6.4.48 8.23 8.23 0 0 1 2.9-5.56zM3.77 12c0-.6.08-1.18.22-1.74 2.85.2 5.5-.1 7.7-.8.23.44.44.9.65 1.36-.28.08-.56.16-.84.25-2.3.75-4.44 2.02-6.07 3.96A8.2 8.2 0 0 1 3.77 12zm8.23 8.23a8.22 8.22 0 0 1-5.06-1.74c1.39-1.84 3.15-3.12 5.1-3.74.16-.05.32-.09.48-.13.63 1.61 1.13 3.35 1.45 5.23a8.2 8.2 0 0 1-2-.62zm3.62.1a33.9 33.9 0 0 0-1.3-4.64c1.68-.17 3.52-.1 5.54.25a8.23 8.23 0 0 1-4.24 4.39z"/></svg>