<svg xmlns="http://www.w3.org/2000/svg" viewBox="0 0 24 24" fill="currentColor"><path d="M12 .5C5.73.5.9 5.33.9 11.6c0 4.88 3.17 9.01 7.57 10.47.55.1.75-.24.75-.54 0-.27-.01-1.18-.02-2.14-3.08.67-3.73-1.3-3.73-1.3-.5-1.27-1.22-1.61-1.22-1.61-.99-.68.08-.67.08-.67 1.1.08 1.67 1.13 1.67 1.13.98 1.67 2.57 1.19 3.2.91.1-.71.38-1.19.69-1.46-2.46-.28-5.05-1.23-5.05-5.49 0-1.21.43-2.19 1.13-2.96-.11-.28-.49-1.41.11-2.94 0 0 .93-.3 3.05 1.13a10.6 10.6 0 0 1 2.78-.37c.94 0 1.89.12 2.78.37 2.12-1.43 3.05-1.13 3.05-1.13.6 1.53.22 2.66.11 2.94.7.77 1.13 1.75 1.13 2.96 0 4.28-2.6 5.2-5.07 5.47.39.33.74.98.74 1.98 0 1.44-.01 2.6-.01 2.96 0 .3.2.65.76.54 4.39-1.47 7.56-5.59 7.56-10.47C23.1 5.33 18.27.5 12 .5Z"/></svg>